<?xml version="1.0" encoding="utf-8"?>
<!-- Generator: Adobe Illustrator 22.0.0, SVG Export Plug-In . SVG Version: 6.00 Build 0)  -->
<svg version="1.1" id="Layer_2" xmlns="http://www.w3.org/2000/svg" xmlns:xlink="http://www.w3.org/1999/xlink" x="0px" y="0px"
	 viewBox="0 0 110 112" style="enable-background:new 0 0 110 112;" xml:space="preserve">
<style type="text/css">
	.st0{fill:#C73B80;}
	.st1{fill:#FFFFFF;}
</style>
<g>
	<path class="st0" d="M55,15c22.7,0,41,18.4,41,41S77.7,97,55,97S14,78.7,14,56S32.3,15,55,15"/>
	<path class="st1" d="M40.6,41.9c2.2,1,3.7,3.2,3.7,5.7c0,3.5-2.8,6.3-6.4,6.3c-2.3,0-4.2-1.1-5.3-2.8c-0.3-0.4-0.1-1,0.3-1.2
		l1.6-0.9c0.4-0.2,0.9-0.1,1.1,0.3c0.5,0.7,1.4,1.2,2.4,1.2c1.7,0,3-1.4,3-3c0-1.6-1.3-2.9-3-2.9c-0.6,0-1.3,0.2-1.8,0.5l-1.5-2.8
		L38,40h-3.9c-0.5,0-0.9-0.4-0.9-0.9v-1.4c0-0.5,0.4-0.9,0.9-0.9h9.2V40L40.6,41.9z"/>
	<path class="st1" d="M45.2,47.7c0-1.2,0.4-2.2,0.9-3.2L50,37c0.1-0.2,0.3-0.4,0.6-0.4h2.4c0.5,0,0.8,0.5,0.6,1l-2,3.8
		c3.8,0,6.5,2.9,6.5,6.2c0,3.5-2.8,6.3-6.4,6.3C48,53.9,45.2,51.2,45.2,47.7 M54.6,47.6c0-1.6-1.3-2.9-3-2.9c-1.6,0-3,1.3-3,2.9
		c0,1.6,1.3,3,3,3C53.3,50.6,54.6,49.3,54.6,47.6"/>
	<path class="st1" d="M59,47.4v-4.6c0-3.6,2.8-6.5,6.6-6.5s6.6,2.9,6.6,6.5v4.6c0,3.6-2.8,6.5-6.6,6.5S59,51,59,47.4 M68.8,47.4
		v-4.6c0-1.8-1.4-3.2-3.2-3.2c-1.8,0-3.2,1.4-3.2,3.2v4.6c0,1.8,1.4,3.2,3.2,3.2C67.4,50.6,68.8,49.2,68.8,47.4"/>
	<path class="st1" d="M74.6,41.7v-1.1c0-2.4,1.8-4.3,4.4-4.3c2.6,0,4.4,2,4.4,4.3v1.1c0,2.4-1.9,4.3-4.4,4.3
		C76.5,46,74.6,44.1,74.6,41.7 M80.9,41.7v-1.1c0-1-0.8-1.8-1.8-1.8c-1,0-1.8,0.8-1.8,1.8v1.1c0,1,0.8,1.8,1.8,1.8
		C80,43.5,80.9,42.7,80.9,41.7"/>
	<path class="st1" d="M63,67.8l-11.9,7.3c-0.6,0.4-1.5-0.1-1.5-0.9V59.8c0-0.8,0.8-1.3,1.5-0.9L63,66C63.6,66.4,63.6,67.4,63,67.8"
		/>
	<path class="st1" d="M28.3,50c-3.1,1.6-6.7,4.2-6.7,8c0,7,12.9,11.9,25.4,12.4V64c0,0-20-1.1-21.3-8.1c-0.5-2.8,1-4.5,2.6-5.7
		c0.9-0.6,1.1-0.7,1.1-0.6C29.2,49.6,28.5,49.9,28.3,50"/>
	<path class="st1" d="M79,49.3c0,0-0.1-0.1,1.3,0.3c3.4,1,9.2,3.4,9.2,8.3c0,6.5-11.2,11.2-22.8,12.3c-0.9,0.1-2.7,0.2-3.5,0.2
		c1.1-0.8,1.8-1.4,2.8-2.3c0.4-0.4,0.8-0.9,0.8-1.2c0-0.5-0.4-1-1.1-1.6C64.7,64.4,64,64,64,64c0,0,19-1.3,20.9-7.6
		c1.1-3.8-2.4-5.8-4.8-6.6C78.9,49.3,79,49.3,79,49.3"/>
</g>
</svg>
