<?xml version="1.0" encoding="utf-8"?>
<!-- Generator: Adobe Illustrator 22.0.0, SVG Export Plug-In . SVG Version: 6.00 Build 0)  -->
<svg version="1.1" id="Layer_4" xmlns="http://www.w3.org/2000/svg" xmlns:xlink="http://www.w3.org/1999/xlink" x="0px" y="0px"
	 viewBox="0 0 110 112" style="enable-background:new 0 0 110 112;" xml:space="preserve">
<style type="text/css">
	.st0{fill:#8047CE;}
	.st1{fill:none;stroke:#FFFFFF;stroke-width:3;stroke-miterlimit:10;stroke-dasharray:12,12;}
	.st2{fill:#FFFFFF;}
</style>
<g>
	<path class="st0" d="M55,15c22.7,0,41,18.4,41,41S77.7,97,55,97S14,78.7,14,56S32.3,15,55,15"/>
	<circle class="st1" cx="55" cy="56" r="34.5"/>
	<path class="st2" d="M52.8,60.3c-0.5,0.5-1.1,0.9-1.9,1.1c-0.8,0.3-1.7,0.4-2.7,0.4c-1.3,0.1-2.6-0.4-3.5-1.4
		c-0.9-1.1-1.5-2.4-1.4-3.8v-1c0-1,0.2-2,0.6-3c0.3-0.8,1-1.5,1.7-1.9c0.7-0.5,1.6-0.7,2.5-0.7c1.2-0.1,2.3,0.2,3.3,1
		c0.8,0.7,1.3,1.8,1.4,2.9h-2.7c0-0.5-0.2-1-0.6-1.4c-0.4-0.3-0.8-0.4-1.3-0.4c-0.7,0-1.2,0.3-1.6,0.9c-0.4,0.7-0.7,1.6-0.6,2.5v0.7
		c-0.1,0.9,0.2,1.8,0.6,2.5c0.4,0.6,1.1,0.9,1.8,0.8c0.6,0.1,1.1-0.1,1.6-0.4v-1.8h-1.9v-1.9h4.7L52.8,60.3L52.8,60.3z"/>
	<rect x="54.6" y="50.3" class="st2" width="2.7" height="11.3"/>
	<polygon class="st2" points="66.3,57.1 61.9,57.1 61.9,61.7 59.2,61.7 59.2,50.3 66.8,50.3 66.8,52.5 62,52.5 62,55.1 66.4,55.1 	
		"/>
</g>
</svg>
