<?xml version="1.0" encoding="utf-8"?>
<!-- Generator: Adobe Illustrator 22.0.0, SVG Export Plug-In . SVG Version: 6.00 Build 0)  -->
<svg version="1.1" xmlns="http://www.w3.org/2000/svg" xmlns:xlink="http://www.w3.org/1999/xlink" x="0px" y="0px"
	 viewBox="0 0 110 112" style="enable-background:new 0 0 110 112;" xml:space="preserve">
<style type="text/css">
	.st0{display:none;}
	.st1{display:inline;}
	.st2{fill:#CC933B;}
	.st3{fill:#FFFFFF;}
	.st4{fill:#C73B80;}
	.st5{fill:#EAEAEA;}
	.st6{fill:url(#SVGID_1_);}
	.st7{fill:#8047CE;}
	.st8{fill:none;stroke:#FFFFFF;stroke-width:3;stroke-miterlimit:10;stroke-dasharray:12,12;}
</style>
<g id="Layer_1" class="st0">
	<g class="st1">
		<path class="st2" d="M55,14.8c22.7,0,41,18.4,41,41.2c0,22.7-18.4,41.2-41,41.2S14,78.7,14,56C14,33.3,32.3,14.8,55,14.8"/>
		<path class="st3" d="M72.4,72.2H50.6c-1.4,0-2.5-1.1-2.5-2.5V56.1c0-1.4,1.1-2.5,2.5-2.5h21.8c1.4,0,2.5,1.1,2.5,2.5v13.5
			C74.9,71,73.8,72.2,72.4,72.2"/>
		<path class="st3" d="M41,61.4h-6.6c-1.6,0-2.9-1.3-2.9-2.9V41.1c0-1.6,1.3-2.9,2.9-2.9h26.3c1.6,0,2.9,1.3,2.9,2.9v5.4h2.4v-5.4
			c0-2.9-2.4-5.3-5.3-5.3H34.4c-2.9,0-5.3,2.4-5.3,5.3v17.5c0,2.9,2.4,5.3,5.3,5.3H41V61.4z"/>
		<path class="st3" d="M41,52.5c0-2.9,3-6,5.9-6h13.8v-3.2c0-1.5-1.2-2.8-2.8-2.8H36.6c-1.5,0-2.8,1.2-2.8,2.8v13
			c0,1.5,1.2,2.8,2.8,2.8H41V52.5z"/>
		<path class="st3" d="M75.6,51.3c1.2,0,2.2,1,2.2,2.2v18.9c0,1.2-1,2.2-2.2,2.2H47.9c-1.2,0-2.2-1-2.2-2.2V53.5
			c0-1.2,1-2.2,2.2-2.2H75.6 M75.6,48.9H47.9c-2.5,0-4.6,2-4.6,4.6v18.9c0,2.5,2,4.6,4.6,4.6h27.7c2.5,0,4.6-2,4.6-4.6V53.5
			C80.2,50.9,78.2,48.9,75.6,48.9"/>
	</g>
</g>
<g id="Layer_2" class="st0">
	<g class="st1">
		<path class="st4" d="M55,15c22.7,0,41,18.4,41,41S77.7,97,55,97S14,78.7,14,56S32.3,15,55,15"/>
		<path class="st3" d="M40.6,41.9c2.2,1,3.7,3.2,3.7,5.7c0,3.5-2.8,6.3-6.4,6.3c-2.3,0-4.2-1.1-5.3-2.8c-0.3-0.4-0.1-1,0.3-1.2
			l1.6-0.9c0.4-0.2,0.9-0.1,1.1,0.3c0.5,0.7,1.4,1.2,2.4,1.2c1.7,0,3-1.4,3-3c0-1.6-1.3-2.9-3-2.9c-0.6,0-1.3,0.2-1.8,0.5l-1.5-2.8
			L38,40h-3.9c-0.5,0-0.9-0.4-0.9-0.9v-1.4c0-0.5,0.4-0.9,0.9-0.9h9.2V40L40.6,41.9z"/>
		<path class="st3" d="M45.2,47.7c0-1.2,0.4-2.2,0.9-3.2L50,37c0.1-0.2,0.3-0.4,0.6-0.4h2.4c0.5,0,0.8,0.5,0.6,1l-2,3.8
			c3.8,0,6.5,2.9,6.5,6.2c0,3.5-2.8,6.3-6.4,6.3C48,53.9,45.2,51.2,45.2,47.7 M54.6,47.6c0-1.6-1.3-2.9-3-2.9c-1.6,0-3,1.3-3,2.9
			c0,1.6,1.3,3,3,3C53.3,50.6,54.6,49.3,54.6,47.6"/>
		<path class="st3" d="M59,47.4v-4.6c0-3.6,2.8-6.5,6.6-6.5s6.6,2.9,6.6,6.5v4.6c0,3.6-2.8,6.5-6.6,6.5S59,51,59,47.4 M68.8,47.4
			v-4.6c0-1.8-1.4-3.2-3.2-3.2c-1.8,0-3.2,1.4-3.2,3.2v4.6c0,1.8,1.4,3.2,3.2,3.2C67.4,50.6,68.8,49.2,68.8,47.4"/>
		<path class="st3" d="M74.6,41.7v-1.1c0-2.4,1.8-4.3,4.4-4.3c2.6,0,4.4,2,4.4,4.3v1.1c0,2.4-1.9,4.3-4.4,4.3
			C76.5,46,74.6,44.1,74.6,41.7 M80.9,41.7v-1.1c0-1-0.8-1.8-1.8-1.8c-1,0-1.8,0.8-1.8,1.8v1.1c0,1,0.8,1.8,1.8,1.8
			C80,43.5,80.9,42.7,80.9,41.7"/>
		<path class="st3" d="M63,67.8l-11.9,7.3c-0.6,0.4-1.5-0.1-1.5-0.9V59.8c0-0.8,0.8-1.3,1.5-0.9L63,66C63.6,66.4,63.6,67.4,63,67.8"
			/>
		<path class="st3" d="M28.3,50c-3.1,1.6-6.7,4.2-6.7,8c0,7,12.9,11.9,25.4,12.4V64c0,0-20-1.1-21.3-8.1c-0.5-2.8,1-4.5,2.6-5.7
			c0.9-0.6,1.1-0.7,1.1-0.6C29.2,49.6,28.5,49.9,28.3,50"/>
		<path class="st3" d="M79,49.3c0,0-0.1-0.1,1.3,0.3c3.4,1,9.2,3.4,9.2,8.3c0,6.5-11.2,11.2-22.8,12.3c-0.9,0.1-2.7,0.2-3.5,0.2
			c1.1-0.8,1.8-1.4,2.8-2.3c0.4-0.4,0.8-0.9,0.8-1.2c0-0.5-0.4-1-1.1-1.6C64.7,64.4,64,64,64,64c0,0,19-1.3,20.9-7.6
			c1.1-3.8-2.4-5.8-4.8-6.6C78.9,49.3,79,49.3,79,49.3"/>
	</g>
</g>
<g id="Layer_3">
	<g>
		<g>
			<path class="st5" d="M96,56c0,22.7-18.4,41-41,41S14,78.7,14,56c0-22.7,18.4-41,41-41S96,33.3,96,56"/>
		</g>
		<linearGradient id="SVGID_1_" gradientUnits="userSpaceOnUse" x1="55" y1="64.7764" x2="55" y2="48.8826">
			<stop  offset="0" style="stop-color:#F16D39"/>
			<stop  offset="1" style="stop-color:#CC3399"/>
		</linearGradient>
		<path class="st6" d="M69.7,43.5c-5,0-11.4,5.5-14.7,8.8c-3.3-3.2-9.8-8.8-14.7-8.8c-6.9,0-12.5,5.6-12.5,12.5s5.6,12.5,12.5,12.5
			c5,0,11.4-5.5,14.7-8.8c3.3,3.2,9.8,8.8,14.7,8.8c6.9,0,12.5-5.6,12.5-12.5S76.6,43.5,69.7,43.5z M40.3,63.2c-4,0-7.2-3.2-7.2-7.2
			s3.2-7.2,7.2-7.2c2.5,0,7.4,3.8,11,7.2C47.7,59.4,42.8,63.2,40.3,63.2z M69.7,63.2c-2.5,0-7.4-3.8-11-7.2c3.5-3.4,8.5-7.2,11-7.2
			c4,0,7.2,3.2,7.2,7.2S73.7,63.2,69.7,63.2z"/>
	</g>
</g>
<g id="Layer_4" class="st0">
	<g class="st1">
		<path class="st7" d="M55,15c22.7,0,41,18.4,41,41S77.7,97,55,97S14,78.7,14,56S32.3,15,55,15"/>
		<circle class="st8" cx="55" cy="56" r="34.5"/>
		<path class="st3" d="M52.8,60.3c-0.5,0.5-1.1,0.9-1.9,1.1c-0.8,0.3-1.7,0.4-2.7,0.4c-1.3,0.1-2.6-0.4-3.5-1.4
			c-0.9-1.1-1.5-2.4-1.4-3.8v-1c0-1,0.2-2,0.6-3c0.3-0.8,1-1.5,1.7-1.9c0.7-0.5,1.6-0.7,2.5-0.7c1.2-0.1,2.3,0.2,3.3,1
			c0.8,0.7,1.3,1.8,1.4,2.9h-2.7c0-0.5-0.2-1-0.6-1.4c-0.4-0.3-0.8-0.4-1.3-0.4c-0.7,0-1.2,0.3-1.6,0.9c-0.4,0.7-0.7,1.6-0.6,2.5
			v0.7c-0.1,0.9,0.2,1.8,0.6,2.5c0.4,0.6,1.1,0.9,1.8,0.8c0.6,0.1,1.1-0.1,1.6-0.4v-1.8h-1.9v-1.9h4.7L52.8,60.3L52.8,60.3z"/>
		<rect x="54.6" y="50.3" class="st3" width="2.7" height="11.3"/>
		<polygon class="st3" points="66.3,57.1 61.9,57.1 61.9,61.7 59.2,61.7 59.2,50.3 66.8,50.3 66.8,52.5 62,52.5 62,55.1 66.4,55.1 
					"/>
	</g>
</g>
</svg>
