<?xml version="1.0" encoding="utf-8"?>
<!-- Generator: Adobe Illustrator 22.0.0, SVG Export Plug-In . SVG Version: 6.00 Build 0)  -->
<svg version="1.1" id="Layer_1" xmlns="http://www.w3.org/2000/svg" xmlns:xlink="http://www.w3.org/1999/xlink" x="0px" y="0px"
	 viewBox="0 0 110 112" style="enable-background:new 0 0 110 112;" xml:space="preserve">
<style type="text/css">
	.st0{fill:#CC933B;}
	.st1{fill:#FFFFFF;}
</style>
<g>
	<path class="st0" d="M55,14.8c22.7,0,41,18.4,41,41.2c0,22.7-18.4,41.2-41,41.2S14,78.7,14,56C14,33.3,32.3,14.8,55,14.8"/>
	<path class="st1" d="M72.4,72.2H50.6c-1.4,0-2.5-1.1-2.5-2.5V56.1c0-1.4,1.1-2.5,2.5-2.5h21.8c1.4,0,2.5,1.1,2.5,2.5v13.5
		C74.9,71,73.8,72.2,72.4,72.2"/>
	<path class="st1" d="M41,61.4h-6.6c-1.6,0-2.9-1.3-2.9-2.9V41.1c0-1.6,1.3-2.9,2.9-2.9h26.3c1.6,0,2.9,1.3,2.9,2.9v5.4h2.4v-5.4
		c0-2.9-2.4-5.3-5.3-5.3H34.4c-2.9,0-5.3,2.4-5.3,5.3v17.5c0,2.9,2.4,5.3,5.3,5.3H41V61.4z"/>
	<path class="st1" d="M41,52.5c0-2.9,3-6,5.9-6h13.8v-3.2c0-1.5-1.2-2.8-2.8-2.8H36.6c-1.5,0-2.8,1.2-2.8,2.8v13
		c0,1.5,1.2,2.8,2.8,2.8H41V52.5z"/>
	<path class="st1" d="M75.6,51.3c1.2,0,2.2,1,2.2,2.2v18.9c0,1.2-1,2.2-2.2,2.2H47.9c-1.2,0-2.2-1-2.2-2.2V53.5c0-1.2,1-2.2,2.2-2.2
		H75.6 M75.6,48.9H47.9c-2.5,0-4.6,2-4.6,4.6v18.9c0,2.5,2,4.6,4.6,4.6h27.7c2.5,0,4.6-2,4.6-4.6V53.5
		C80.2,50.9,78.2,48.9,75.6,48.9"/>
</g>
</svg>
